0
SECTION
2
HEADER
9
$INSUNITS
70
4
9
$ACADVER
1
AC1014
9
$HANDSEED
5
FFFF
0
ENDSEC
0
SECTION
2
TABLES
0
TABLE
2
VPORT
5
8
100
AcDbSymbolTable
0
ENDTAB
0
TABLE
2
LTYPE
5
5
100
AcDbSymbolTable
0
LTYPE
5
14
100
AcDbSymbolTableRecord
100
AcDbLinetypeTableRecord
2
BYBLOCK
70
0
0
LTYPE
5
15
100
AcDbSymbolTableRecord
100
AcDbLinetypeTableRecord
2
BYLAYER
70
0
0
ENDTAB
0
TABLE
2
LAYER
5
2
100
AcDbSymbolTable
70
2
0
LAYER
5
50
100
AcDbSymbolTableRecord
100
AcDbLayerTableRecord
2
0
70
0
6
CONTINUOUS
0
ENDTAB
0
TABLE
2
STYLE
5
3
100
AcDbSymbolTable
70
1
0
STYLE
5
11
100
AcDbSymbolTableRecord
100
AcDbTextStyleTableRecord
2
STANDARD
70
0
0
ENDTAB
0
TABLE
2
VIEW
5
6
100
AcDbSymbolTable
70
0
0
ENDTAB
0
TABLE
2
UCS
5
7
100
AcDbSymbolTable
70
0
0
ENDTAB
0
TABLE
2
APPID
5
9
100
AcDbSymbolTable
70
2
0
APPID
5
12
100
AcDbSymbolTableRecord
100
AcDbRegAppTableRecord
2
ACAD
70
0
0
ENDTAB
0
TABLE
2
DIMSTYLE
5
A
100
AcDbSymbolTable
70
1
0
ENDTAB
0
TABLE
2
BLOCK_RECORD
5
1
100
AcDbSymbolTable
70
1
0
BLOCK_RECORD
5
1F
100
AcDbSymbolTableRecord
100
AcDbBlockTableRecord
2
*MODEL_SPACE
0
BLOCK_RECORD
5
1B
100
AcDbSymbolTableRecord
100
AcDbBlockTableRecord
2
*PAPER_SPACE
0
ENDTAB
0
ENDSEC
0
SECTION
2
BLOCKS
0
BLOCK
5
20
100
AcDbEntity
100
AcDbBlockBegin
2
*MODEL_SPACE
0
ENDBLK
5
21
100
AcDbEntity
100
AcDbBlockEnd
0
BLOCK
5
1C
100
AcDbEntity
100
AcDbBlockBegin
2
*PAPER_SPACE
0
ENDBLK
5
1D
100
AcDbEntity
100
AcDbBlockEnd
0
ENDSEC
0
SECTION
2
ENTITIES
0
LWPOLYLINE
5
100
100
AcDbEntity
8
0
100
AcDbPolyline
90
28
70
1
43
0.0
10
-15.497651217857733
20
-3.1155660003560803
10
45.501186745193458
20
-3.115566000356079
42
0.28640153853812411
10
53.616976044162357
20
-9.9149285192619008
10
53.617409297607317
20
-6.011911407452331
10
56.397409280486805
20
-6.0122200006593083
10
56.39784075690352
20
-9.8992283381532822
42
0.33455884850847112
10
64.894633329646851
20
-1.4020666641298107
10
61.007410268885337
20
-1.4020666641298121
10
61.007410268863453
20
1.3779333358701904
10
64.91033421948724
20
1.3779333358701873
42
0.33468034770989791
10
56.397844401267115
20
9.8907971978670624
10
56.397411240176545
20
5.9877801059653271
10
53.617411257289604
20
5.9880886333959049
10
53.616977486111082
20
9.8966030128216502
42
0.28630733730693703
10
45.497054630890261
20
3.0972998585000351
10
-15.490577542506355
20
3.0972998585000355
42
0.28604707055199352
10
-23.602588392755116
20
9.8838522054933815
10
-23.602587000132655
20
5.9809290355738209
10
-26.38258700013338
20
5.9809280436321863
10
-26.382588394538438
20
9.8888498038352921
42
0.33487984897730488
10
-34.901252612223189
20
1.3656287760996024
10
-30.990710809130771
20
1.3709322421180115
10
-30.994479050110652
20
-1.4090652039896179
10
-34.865742554220716
20
-1.4038177697516439
42
0.33460410714409133
10
-26.382583580238052
20
-9.8914871381044467
10
-26.382591848588937
20
-6.0190694844374946
10
-23.60259184858911
20
-6.0190734363847467
10
-23.602597378315394
20
-9.9089679256512415
42
0.28645008894152751
0
LINE
5
101
100
AcDbEntity
8
0
100
AcDbLine
10
-34.992589424347578
20
-0.019075028554959923
30
0
11
-30.992589424366788
21
-0.019069036173031198
31
0
0
LINE
5
102
100
AcDbEntity
8
0
100
AcDbLine
10
-24.992585856197692
20
-10.019071460393626
30
0
11
-24.992591848591875
21
-6.0190714604006024
31
0
0
LINE
5
103
100
AcDbEntity
8
0
100
AcDbLine
10
-14.992589424359027
20
-0.019067892243739573
30
0
11
-18.992589424364297
21
-0.019073884625686498
31
0
0
LINE
5
104
100
AcDbEntity
8
0
100
AcDbLine
10
-24.992592992508911
20
9.9809285395949274
30
0
11
-24.992587000139213
21
5.9809285396018854
31
0
0
LINE
5
105
100
AcDbEntity
8
0
100
AcDbLine
10
65.00741033035662
20
-0.01206666412981152
30
0
11
61.007410330356613
21
-0.01206666412981003
31
0
0
LINE
5
106
100
AcDbEntity
8
0
100
AcDbLine
10
55.007411265846137
20
9.9879343943011776
30
0
11
55.007411265846137
21
5.9879343943011829
31
0
0
LINE
5
107
100
AcDbEntity
8
0
100
AcDbLine
10
45.007410207415134
20
-0.012064670209309965
30
0
11
49.007410207415134
21
-0.012064670209310176
31
0
0
LINE
5
108
100
AcDbEntity
8
0
100
AcDbLine
10
55.007409271925631
20
-10.012065728640302
30
0
11
55.007409271925624
21
-6.0120657286403087
31
0
0
ENDSEC
0
SECTION
2
OBJECTS
0
DICTIONARY
5
C
100
AcDbDictionary
3
ACAD_GROUP
350
D
3
ACAD_MLINESTYLE
350
17
0
DICTIONARY
5
D
100
AcDbDictionary
0
DICTIONARY
5
1A
330
C
100
AcDbDictionary
0
DICTIONARY
5
17
100
AcDbDictionary
0
ENDSEC
0
EOF
