<?xml version="1.0" encoding="UTF-8" standalone="no"?>
<!-- Created with Inkscape (http://www.inkscape.org/) -->

<svg
   xmlns:dc="http://purl.org/dc/elements/1.1/"
   xmlns:cc="http://creativecommons.org/ns#"
   xmlns:rdf="http://www.w3.org/1999/02/22-rdf-syntax-ns#"
   xmlns:svg="http://www.w3.org/2000/svg"
   xmlns="http://www.w3.org/2000/svg"
   xmlns:sodipodi="http://sodipodi.sourceforge.net/DTD/sodipodi-0.dtd"
   xmlns:inkscape="http://www.inkscape.org/namespaces/inkscape"
   width="227mm"
   height="400mm"
   viewBox="0 0 227 400"
   version="1.1"
   id="svg8"
   inkscape:version="0.92.4 (5da689c313, 2019-01-14)"
   sodipodi:docname="sportcar.svg"
   inkscape:export-filename="H:\FabLab TECSUP\week 4\Vinyl\sportcar1.png"
   inkscape:export-xdpi="96"
   inkscape:export-ydpi="96">
  <defs
     id="defs2" />
  <sodipodi:namedview
     id="base"
     pagecolor="#ffffff"
     bordercolor="#666666"
     borderopacity="1.0"
     inkscape:pageopacity="0.0"
     inkscape:pageshadow="2"
     inkscape:zoom="0.49497475"
     inkscape:cx="215.95469"
     inkscape:cy="414.34062"
     inkscape:document-units="mm"
     inkscape:current-layer="layer1"
     showgrid="false"
     inkscape:pagecheckerboard="true"
     inkscape:window-width="1920"
     inkscape:window-height="1017"
     inkscape:window-x="-8"
     inkscape:window-y="-8"
     inkscape:window-maximized="1" />
  <metadata
     id="metadata5">
    <rdf:RDF>
      <cc:Work
         rdf:about="">
        <dc:format>image/svg+xml</dc:format>
        <dc:type
           rdf:resource="http://purl.org/dc/dcmitype/StillImage" />
        <dc:title />
      </cc:Work>
    </rdf:RDF>
  </metadata>
  <g
     inkscape:label="Capa 1"
     inkscape:groupmode="layer"
     id="layer1"
     transform="translate(0,103)">
    <path
       style="fill:none;fill-opacity:1;stroke:#ff0000;stroke-width:0.11777756;stroke-miterlimit:4;stroke-dasharray:none;stroke-opacity:1"
       d="m 35.591452,296.90561 c -1.977158,-0.26818 -3.999601,-0.88903 -5.841067,-1.79311 -3.076011,-1.51015 -5.637207,-3.74935 -7.577607,-6.62489 -0.240425,-0.35629 -0.493716,-0.64781 -0.562871,-0.64781 -0.0692,0 -3.542711,-0.25709 -7.71901,-0.57131 -5.7837558,-0.43516 -7.7092935,-0.60855 -8.0800485,-0.72764 -0.6839148,-0.21967 -1.221686,-0.77658 -1.4803963,-1.5331 -0.1082046,-0.31637 -0.4978606,-1.73019 -0.8659093,-3.14178 -0.8119218,-3.11398 -0.7396243,-2.87628 -0.8748607,-2.87628 -0.243477,0 -1.1953186,-0.98256 -1.4276942,-1.47378 -0.2340182,-0.49466 -1.10174763,-4.60547 -1.10309708,-5.22582 -7.3449e-4,-0.53204 0.19205896,-1.18251 0.47706658,-1.606 l 0.28475118,-0.42315 -0.15346232,-1.0563 c -0.59014551,-4.06204 -0.0681717,-5.67506 2.26732084,-7.00652 2.8105581,-1.6023 10.5143668,-4.69106 15.3039988,-6.13599 4.723578,-1.42498 9.913349,-2.47826 18.72464,-3.80021 8.871459,-1.33096 10.931835,-1.59342 19.071986,-2.42947 2.141731,-0.21996 4.129205,-0.42497 4.41661,-0.45555 0.445353,-0.0474 1.040354,-0.31262 4.026798,-1.79482 5.960133,-2.9581 10.095548,-4.88204 13.814608,-6.4271 5.15945,-2.14346 7.952116,-3.09312 11.947651,-4.06291 5.312811,-1.2895 9.426017,-1.87555 16.018681,-2.28231 2.43793,-0.15042 12.14482,-0.14988 14.73543,6.6e-4 9.42567,0.54833 13.98939,1.18629 23.93954,3.34647 7.10559,1.54262 28.78648,6.85361 31.19663,7.64195 4.31908,1.41277 7.41199,2.1268 9.21252,2.1268 1.33608,0 3.34396,-0.29656 6.0262,-0.89007 1.43182,-0.31683 1.77736,-0.27884 2.35876,0.25926 0.66708,0.61738 0.67997,1.26068 0.0533,2.66043 -0.56198,1.25538 -0.97015,2.46578 -1.03131,3.05817 -0.0882,0.85491 0.37106,1.9968 1.74964,4.35015 1.70816,2.91592 2.09152,4.02776 1.99437,5.78425 -0.26244,4.74537 -1.45955,8.30842 -4.14793,12.3459 -1.93424,2.9049 -3.99658,5.2737 -5.73324,6.58528 -1.96857,1.48668 -5.5395,2.68775 -9.84384,3.31092 -0.4763,0.069 -0.87902,0.14058 -0.89493,0.15915 -0.016,0.0186 -0.24024,0.44779 -0.4985,0.95382 -1.80591,3.53861 -4.72145,6.46148 -8.24976,8.27052 -4.60297,2.36006 -10.2285,2.69089 -15.09985,0.888 -2.4906,-0.92175 -4.58069,-2.24591 -6.54894,-4.149 -1.59797,-1.54508 -2.75241,-3.10018 -3.75114,-5.0531 l -0.49352,-0.96497 -2.55218,0.0634 c -4.4449,0.11039 -15.92466,0.41357 -32.81954,0.8668 -9.004984,0.24156 -21.788962,0.57925 -28.408839,0.75041 -6.619883,0.17117 -14.262539,0.37085 -16.983699,0.4437 -2.721147,0.0729 -5.135866,0.13249 -5.366041,0.13249 h -0.418497 l -0.386527,0.59408 c -1.8804,2.89019 -4.522803,5.22597 -7.643605,6.75664 -1.98449,0.97335 -3.783175,1.51944 -5.973822,1.81364 -1.165443,0.15652 -3.900719,0.15112 -5.088805,-0.01 z m 4.967541,-0.17482 c 5.525505,-0.72433 10.270256,-3.64066 13.397288,-8.23456 0.535908,-0.78731 0.662427,-0.92196 0.866467,-0.92213 0.280127,-2.9e-4 25.211381,-0.64467 32.497571,-0.84002 22.114621,-0.59288 32.477531,-0.86909 39.869731,-1.0627 4.72153,-0.12364 9.81919,-0.25777 11.32813,-0.29806 1.50894,-0.0403 2.78336,-0.056 2.83203,-0.0349 0.0487,0.0212 0.29714,0.46857 0.55213,0.99438 1.79347,3.69819 5.21485,6.99036 8.99359,8.65393 2.5528,1.12387 4.88473,1.61108 7.712,1.61128 2.19991,1.8e-4 3.95304,-0.28564 6.01806,-0.98106 4.52634,-1.52428 8.36211,-4.87501 10.6088,-9.26723 0.37518,-0.73348 0.55467,-0.9966 0.7004,-1.02669 0.10777,-0.0223 0.83315,-0.14346 1.61197,-0.26934 1.7191,-0.27786 3.9218,-0.80543 5.1773,-1.24003 1.35713,-0.46978 2.9519,-1.26698 3.76129,-1.88022 2.16972,-1.64383 5.26139,-5.50126 7.15369,-8.92552 1.60661,-2.90728 2.63471,-6.87624 2.65726,-10.25822 0.0104,-1.55883 -0.34994,-2.52613 -1.97341,-5.29749 -1.40842,-2.40426 -1.83126,-3.47307 -1.75305,-4.43123 0.0534,-0.65535 0.43614,-1.81875 1.03419,-3.14428 0.52333,-1.15986 0.5791,-1.64196 0.24694,-2.13486 -0.28924,-0.42921 -0.73341,-0.70107 -1.14537,-0.70107 -0.19081,0 -1.23033,0.17827 -2.31007,0.39615 -2.7979,0.56459 -3.90813,0.69432 -5.45894,0.63783 -1.96108,-0.0714 -4.48068,-0.65831 -8.60513,-2.00435 -1.5084,-0.49228 -7.64989,-2.04303 -20.68872,-5.22399 -9.25482,-2.25778 -17.33689,-3.96273 -22.21377,-4.68609 -8.46431,-1.25544 -20.08623,-1.66022 -29.24959,-1.01875 -5.030557,0.35217 -9.109302,0.98382 -14.027433,2.17234 -6.459986,1.56111 -13.368676,4.38189 -25.597942,10.45144 l -3.516957,1.74553 -3.563136,0.36098 c -7.476548,0.75747 -11.568682,1.25707 -17.413561,2.12603 -11.666102,1.73438 -15.730512,2.51722 -21.196002,4.08254 -4.428519,1.26832 -12.8505879,4.60476 -15.7120686,6.22439 -1.4305066,0.80967 -2.0369637,1.50502 -2.35631395,2.70167 -0.20866235,0.78187 -0.1901673,2.43006 0.0454046,4.04497 l 0.18337935,1.25721 -0.29845608,0.44349 c -0.27464331,0.40812 -0.49139372,1.08077 -0.49139372,1.52494 0,0.51762 0.9141938,4.76324 1.1161743,5.18364 0.2221897,0.46246 1.1019407,1.35191 1.3371721,1.35191 0.1760899,0 0.2365735,0.18756 0.9560809,2.96478 0.3657083,1.41159 0.7537872,2.8254 0.8623971,3.1418 0.2534494,0.7383 0.7226502,1.22795 1.3795973,1.43972 0.3558769,0.11473 2.3817062,0.29633 8.1244237,0.72832 4.207669,0.31652 7.70239,0.57548 7.766044,0.57548 0.0637,0 0.257958,0.23046 0.431818,0.51214 0.454981,0.73713 1.277319,1.78893 2.100225,2.68627 2.906224,3.16909 7.337357,5.40121 11.736045,5.91184 1.064692,0.1236 3.416539,0.10157 4.513742,-0.0422 z m -4.392291,-0.48836 c -4.443432,-0.54984 -8.253228,-2.43516 -11.287741,-5.58584 -0.922542,-0.95786 -1.748806,-2.00866 -2.37091,-3.01517 -0.211012,-0.34141 -0.43071,-0.59694 -0.513587,-0.59738 -0.755453,-0.004 -15.5958905,-1.17978 -15.8296129,-1.2542 -0.4571018,-0.14557 -0.7796725,-0.40197 -0.9653995,-0.76741 -0.1233363,-0.24267 -1.7781319,-6.31417 -1.7781319,-6.52403 0,-0.0205 -0.1369858,-0.0946 -0.3044094,-0.16453 -0.460106,-0.19224 -1.0697107,-0.80184 -1.2711063,-1.27111 -0.2141237,-0.49893 -0.99185178,-4.35329 -0.98907542,-4.90182 0.002137,-0.43971 0.21744282,-0.96506 0.56309172,-1.37449 l 0.2384004,-0.28239 -0.1966408,-1.35487 c -0.2290711,-1.57835 -0.2673967,-3.3383 -0.087907,-4.03693 0.1876821,-0.73055 0.719707,-1.4494 1.4110187,-1.90653 2.3141258,-1.53021 11.1626204,-5.10767 16.3455674,-6.6085 5.07678,-1.47011 9.671516,-2.3544 20.886249,-4.01971 5.863562,-0.87071 9.228006,-1.28389 16.903694,-2.07592 l 4.248059,-0.43834 3.274536,-1.60968 c 12.18153,-5.98811 18.61673,-8.68484 24.382038,-10.21754 4.503086,-1.19713 9.107864,-2.00534 13.584915,-2.38437 8.17257,-0.69188 18.1916,-0.54593 27.16983,0.39578 6.39953,0.67122 14.09169,2.23841 29.1611,5.9412 3.57765,0.8791 8.51601,2.09265 10.97413,2.6968 2.68371,0.65961 5.22949,1.34349 6.37208,1.71175 2.34621,0.7562 4.01848,1.22865 5.57634,1.57541 1.95232,0.43457 2.46006,0.5019 3.76051,0.49865 1.59796,-0.004 3.01833,-0.22009 6.66456,-1.01398 0.55765,-0.12142 0.84219,-0.065 1.13116,0.22387 0.28603,0.28601 0.284,0.79673 -0.006,1.3679 -0.29529,0.58272 -0.87561,2.05617 -1.05373,2.67545 -0.47542,1.65274 -0.18713,2.6853 1.6053,5.74971 1.3536,2.31417 1.83058,3.40134 1.93819,4.41761 0.0287,0.27092 0.005,1.04752 -0.052,1.72577 -0.39248,4.64826 -1.70124,8.06201 -4.70226,12.26535 -1.57855,2.211 -3.46793,4.29719 -4.81779,5.31966 -1.93235,1.46369 -5.65397,2.67388 -10.00445,3.25321 l -0.80034,0.10659 -0.45329,0.94132 c -2.348,4.87605 -6.69009,8.44433 -11.87477,9.75854 -1.68022,0.4259 -2.89116,0.54477 -5.01048,0.49185 -1.54455,-0.0385 -2.04541,-0.0857 -2.96479,-0.27906 -2.11478,-0.44475 -4.22436,-1.28367 -6.0057,-2.38829 -2.89319,-1.79411 -5.54195,-4.81213 -6.88559,-7.84555 -0.18107,-0.40877 -0.33632,-0.75463 -0.34503,-0.76858 -0.0184,-0.0297 -1.49949,0.009 -36.81102,0.95348 -16.484232,0.44102 -23.59759,0.62837 -38.719218,1.01975 -8.064753,0.20872 -12.002163,0.34093 -12.02325,0.40369 -0.01723,0.0514 -0.298756,0.49905 -0.625576,0.99493 -2.831146,4.29556 -7.325658,7.20224 -12.485442,8.07455 -0.997119,0.16857 -3.989011,0.24307 -4.956069,0.1234 z m 5.044555,-0.34119 c 4.220195,-0.74974 7.851565,-2.76029 10.644031,-5.89317 0.643216,-0.72162 1.856475,-2.38698 2.245753,-3.08256 0.07642,-0.13656 0.827219,-0.16911 8.531559,-0.36978 24.359824,-0.63453 29.692726,-0.77477 38.67089,-1.01697 21.54583,-0.58124 39.74713,-1.06079 40.29083,-1.06153 0.30935,-3.4e-4 0.34286,0.0259 0.47969,0.37565 0.42783,1.09396 1.44918,2.8298 2.4084,4.09318 0.61678,0.81239 1.99436,2.20108 2.93623,2.95993 4.29614,3.46139 10.14041,4.73573 15.49446,3.37858 5.20913,-1.32042 9.57025,-4.92619 11.85551,-9.80214 l 0.42043,-0.89707 0.78081,-0.1073 c 3.91919,-0.53862 7.34231,-1.52992 9.22181,-2.67054 2.0224,-1.22735 4.77982,-4.35058 6.98057,-7.90664 1.49735,-2.41952 2.48239,-4.94588 2.98441,-7.65422 0.21201,-1.14373 0.42086,-3.52308 0.35906,-4.09043 -0.11225,-1.0306 -0.5793,-2.09594 -1.92676,-4.39498 -1.7576,-2.9988 -2.07839,-4.10288 -1.65817,-5.7072 0.19172,-0.73196 0.74733,-2.18523 1.10623,-2.8935 0.26081,-0.51467 0.27832,-0.87647 0.0558,-1.15134 -0.22869,-0.28243 -0.45561,-0.26577 -2.7572,0.20231 -1.09521,0.22273 -2.3497,0.45802 -2.78778,0.52289 -1.16469,0.17247 -3.34642,0.14898 -4.42505,-0.0475 -1.85215,-0.3376 -4.57511,-1.07137 -7.26798,-1.95855 -1.75298,-0.57752 -20.64594,-5.26977 -27.40334,-6.80588 -11.87529,-2.69951 -16.9929,-3.49741 -26.26166,-4.09453 -3.07595,-0.19817 -13.29934,-0.22624 -16.23995,-0.0446 -6.183741,0.38196 -10.31766,0.98489 -15.576179,2.27178 -6.581984,1.61075 -12.814739,4.15816 -25.665307,10.48975 l -3.451541,1.70061 -4.142373,0.42837 c -8.228069,0.85087 -11.076248,1.20426 -17.850147,2.21476 -15.401468,2.29752 -20.115384,3.46034 -29.5593385,7.29166 -3.9510154,1.60288 -6.4605487,2.8267 -7.2203741,3.52113 -1.106459,1.01124 -1.2929506,2.23537 -0.8257849,5.42054 0.1919094,1.30844 0.2077924,1.63727 0.079108,1.63727 -0.1566454,0 -0.6077712,0.80355 -0.6647988,1.18412 -0.066745,0.44524 0.6799612,4.39163 0.9521474,5.03233 0.1979629,0.46601 0.7241974,0.99079 1.1877794,1.18449 0.1667179,0.0697 0.3372116,0.21631 0.3788711,0.32589 0.041685,0.10957 0.4223793,1.53126 0.846036,3.1593 0.4236567,1.62803 0.8438513,3.10428 0.9337739,3.28052 0.1888385,0.37018 0.4462708,0.56069 0.9339461,0.69117 0.2609545,0.0698 15.2044454,1.24937 15.8280714,1.24937 0.06604,0 0.300211,0.28874 0.520417,0.64164 2.859538,4.58263 7.831793,7.81359 13.025844,8.46416 0.438088,0.055 0.915998,0.11621 1.062014,0.1363 0.692341,0.0953 3.499149,-0.0349 4.469299,-0.20715 z m -4.927271,-1.42668 c -5.7903,-0.72599 -10.725191,-4.24942 -13.170685,-9.40369 -4.299439,-9.06172 0.195561,-19.74811 9.685198,-23.02559 3.308329,-1.1426 7.254199,-1.15831 10.652376,-0.0425 4.323383,1.41966 7.938214,4.62761 9.869514,8.75858 1.830154,3.91459 2.082063,8.30082 0.713013,12.41465 -1.928269,5.79419 -6.866698,10.05418 -12.91063,11.13699 -1.153926,0.20673 -3.779189,0.29435 -4.838786,0.16151 z m 4.211461,-0.3084 c 5.941745,-0.84448 11.030797,-4.94242 13.13191,-10.57441 0.654161,-1.75345 0.940557,-3.23863 1.006895,-5.22157 0.289061,-8.64017 -6.166652,-15.98711 -14.851625,-16.90191 -4.111109,-0.43302 -8.411176,0.83733 -11.788967,3.48276 -0.87613,0.68617 -2.316078,2.1623 -2.989402,3.06452 -1.449657,1.94249 -2.452265,4.17799 -2.974585,6.63242 -0.216874,1.01909 -0.236658,1.28055 -0.238167,3.14696 -6.68e-4,2.21671 0.07277,2.82041 0.565187,4.57393 1.511167,5.38178 5.882532,9.76496 11.281705,11.31221 0.843238,0.24165 2.021275,0.48455 2.705316,0.5578 0.840519,0.09 3.311266,0.0468 4.151733,-0.0727 z M 26.45332,280.16853 c -0.03626,-0.0886 -0.0653,-0.85802 -0.06457,-1.70985 6.68e-4,-1.65021 0.106815,-2.36912 0.542372,-3.70345 1.32832,-4.06916 4.944859,-7.19316 9.180779,-7.93039 1.031219,-0.17948 3.149392,-0.17948 4.180612,0 4.727932,0.82286 8.491556,4.48755 9.518055,9.26789 0.2595,1.20848 0.29738,3.86181 0.05856,4.10066 -0.08139,0.0815 -0.210838,0.12391 -0.287631,0.0945 -0.110561,-0.0423 -0.139673,-0.19684 -0.13986,-0.74224 -6.68e-4,-4.80337 -2.832442,-9.01408 -7.212601,-10.72883 -2.437869,-0.95438 -5.325971,-1.00086 -7.764514,-0.12494 -2.682019,0.96337 -4.93702,2.94601 -6.243465,5.48941 -0.818379,1.59321 -1.153171,2.89844 -1.244675,4.85272 -0.05609,1.19806 -0.06457,1.23993 -0.257538,1.26734 -0.128188,0.0182 -0.223124,-0.0292 -0.26551,-0.13276 z m 0.285609,-0.50032 c -0.08206,-0.54734 0.105165,-2.25723 0.356867,-3.2587 0.946012,-3.76417 3.785926,-6.78776 7.547794,-8.03596 2.356974,-0.78204 5.410163,-0.69955 7.700787,0.20803 4.376734,1.73417 7.244765,5.88129 7.282477,10.53033 0.0067,0.82087 0.02297,0.93268 0.09824,0.67429 0.124603,-0.42748 0.03385,-2.81663 -0.136187,-3.58429 -0.339974,-1.53515 -0.895733,-2.8729 -1.687076,-4.06094 -1.783381,-2.67731 -4.33406,-4.38142 -7.586682,-5.06866 -0.913475,-0.19299 -3.089959,-0.21518 -4.059962,-0.0414 -4.84983,0.86898 -8.686883,4.694 -9.504013,9.47422 -0.139833,0.818 -0.199827,3.11746 -0.08887,3.40657 0.09886,0.25762 0.134691,0.14376 0.07659,-0.2435 z M 156.9264,294.33032 c -2.21218,-0.26686 -3.85153,-0.74706 -5.73431,-1.67974 -7.97882,-3.95248 -11.32225,-13.73016 -7.45059,-21.78878 2.28821,-4.76276 6.50053,-7.98251 11.85739,-9.06342 0.8281,-0.1671 1.26435,-0.19665 2.92053,-0.19779 2.03012,-6.7e-4 2.54751,0.0548 4.13149,0.44915 3.11328,0.77502 6.05365,2.56627 8.19761,4.99389 5.43986,6.15961 5.54704,15.25626 0.25404,21.5625 -2.58137,3.07553 -6.31709,5.11033 -10.37302,5.65006 -0.8667,0.11533 -3.10062,0.15887 -3.80314,0.0742 z m 3.71705,-0.31008 c 6.45544,-0.76609 12.03432,-5.71941 13.62116,-12.09383 0.38742,-1.55623 0.45057,-2.11254 0.44897,-3.95448 -6.7e-4,-1.89313 -0.0692,-2.45736 -0.49128,-4.10325 -0.97065,-3.78504 -3.35668,-7.12697 -6.67576,-9.35024 -7.19914,-4.82228 -16.86752,-3.11329 -22.03757,3.89537 -1.97325,2.67502 -3,5.65258 -3.11279,9.02712 -0.26776,8.01094 5.36019,14.98956 13.27576,16.46187 1.59563,0.29678 3.15067,0.33352 4.97151,0.11744 z M 147.0029,279.67927 c -0.14017,-0.22679 -0.0543,-2.57357 0.12749,-3.4841 0.83869,-4.20113 3.74429,-7.51773 7.74531,-8.84086 2.98408,-0.98684 6.2949,-0.72581 9.08654,0.71634 1.17993,0.60955 1.97008,1.19287 2.93169,2.16424 2.04541,2.06615 3.18447,4.7207 3.31998,7.73704 0.0598,1.32958 -0.0214,1.77001 -0.32607,1.77001 -0.19886,0 -0.21912,-0.0375 -0.23893,-0.4425 -0.12366,-2.52668 -0.70456,-4.41203 -1.92369,-6.2433 -2.05068,-3.08036 -5.40798,-4.88192 -9.11729,-4.89241 -2.92814,-0.008 -5.50189,1.01926 -7.59501,3.03222 -2.1612,2.07842 -3.32297,4.63768 -3.45767,7.61673 -0.023,0.51111 -0.0447,0.93923 -0.0481,0.95139 -0.0208,0.0753 -0.44995,0.003 -0.50424,-0.0848 z m 0.53944,-2.79913 c 0.80971,-3.96993 3.76594,-7.24124 7.64317,-8.45783 1.10072,-0.34537 2.12185,-0.49524 3.37416,-0.49524 1.81169,0 3.2613,0.31851 4.86175,1.06826 3.74846,1.756 6.38189,5.77533 6.38189,9.74045 0,0.52857 0.0329,0.78491 0.1009,0.78491 0.0734,0 0.0873,-0.39129 0.0509,-1.43814 -0.0702,-2.01608 -0.38254,-3.22709 -1.28214,-4.97061 -1.58385,-3.06975 -4.57238,-5.27308 -8.07368,-5.95246 -1.03005,-0.19987 -2.98457,-0.19789 -4.01565,0.004 -4.70273,0.92112 -8.26493,4.41525 -9.21445,9.03837 -0.17233,0.83905 -0.27879,2.74294 -0.17372,3.10673 0.0562,0.19486 0.0889,0.022 0.13598,-0.72078 0.0341,-0.53738 0.12901,-1.30587 0.21097,-1.70771 z m -134.031407,7.94144 c -3.7234107,-0.28571 -6.8108303,-0.53522 -6.8609306,-0.55444 -0.050119,-0.0192 -0.4884037,-1.562 -0.9739983,-3.42837 -0.6003249,-2.30728 -0.9395697,-3.4587 -1.0599233,-3.5974 -0.097346,-0.11218 -0.3722533,-0.25257 -0.6108975,-0.31197 -0.2756429,-0.0686 -0.4939624,-0.18889 -0.5985687,-0.3298 -0.2237174,-0.30137 -1.0227683,-4.39068 -0.8974829,-4.59304 0.048116,-0.0777 0.232391,-0.21086 0.4095806,-0.29597 0.2134092,-0.10251 0.3426795,-0.23646 0.3829114,-0.39676 0.034407,-0.13708 -0.049398,-0.99085 -0.1932735,-1.96926 -0.2802956,-1.90606 -0.3364671,-3.4606 -0.1447086,-4.00474 0.1620845,-0.45992 0.6480597,-0.84352 1.8546561,-1.46394 2.6564129,-1.36593 8.8812603,-3.86823 12.8959373,-5.18397 4.181942,-1.37054 9.861889,-2.595 17.487839,-3.76992 9.377347,-1.44478 13.757172,-2.00508 22.868642,-2.92549 l 3.540046,-0.3576 3.230287,-1.60111 c 8.064458,-3.99718 13.480477,-6.44723 18.23449,-8.24872 3.726833,-1.41224 6.707054,-2.26004 10.926614,-3.10838 4.440975,-0.89285 8.143717,-1.30763 13.930757,-1.5605 2.6873,-0.11744 11.31936,-0.0594 13.68158,0.0919 6.30036,0.40363 10.00186,0.80238 14.02741,1.51107 5.55377,0.97773 12.2217,2.43715 21.06326,4.61016 1.97135,0.48451 6.51145,1.5984 10.08912,2.47533 4.29266,1.0522 7.21212,1.81742 8.58459,2.25014 2.31418,0.72962 4.98838,1.49654 5.53314,1.5868 0.39067,0.0648 0.72695,0.22233 0.48493,0.22727 -0.11799,0.001 -0.11799,0.0131 0,0.0965 0.14919,0.10536 -2.60874,0.0589 -6.94733,-0.11689 -3.60792,-0.14624 -11.86431,-0.14242 -14.02742,0.007 -3.00628,0.20692 -3.22434,0.25406 -0.9735,0.21046 3.96683,-0.0768 8.47823,0.15489 16.15143,0.8297 2.77457,0.24401 4.26633,0.33008 6.33849,0.36573 3.77199,0.0649 5.57222,-0.13984 7.68894,-0.8745 1.00138,-0.34757 1.50452,-0.48523 1.50452,-0.41166 0,0.0206 -0.11631,0.35604 -0.25847,0.74557 -0.31802,0.87141 -0.53826,1.90817 -0.53742,2.53009 6.6e-4,1.20301 0.62825,2.78544 2.09884,5.29993 1.02827,1.75818 1.29172,2.28783 1.53287,3.0818 0.19091,0.62847 0.19386,0.69438 0.0894,1.98813 -0.20197,2.50021 -0.63565,4.38715 -1.49256,6.49403 -1.0794,2.65386 -3.67274,6.43564 -6.0276,8.7898 -0.56366,0.56349 -1.27882,1.19568 -1.58925,1.40484 -1.18658,0.79956 -2.92181,1.48355 -5.14572,2.02836 -1.08349,0.26542 -3.54978,0.71957 -3.90771,0.71957 -0.20641,0 -0.21652,0.11407 0.13624,-1.53612 0.62916,-2.9433 0.44394,-6.18583 -0.52144,-9.12825 -0.39748,-1.21155 -1.36032,-3.19641 -2.06064,-4.24806 -4.30525,-6.46483 -12.303,-9.46621 -19.68139,-7.38604 -4.26296,1.20186 -8.07704,4.09805 -10.42923,7.91934 -0.20897,0.33947 -0.6082,1.09513 -0.88721,1.67924 -1.76867,3.70293 -2.17532,7.79322 -1.19329,12.00286 0.0721,0.3088 0.10012,0.59232 0.0625,0.63002 -0.0377,0.0377 -2.29646,0.12799 -5.01941,0.20061 -2.72299,0.0726 -10.24766,0.27172 -16.72151,0.44244 -6.47386,0.17071 -14.658,0.38953 -18.18697,0.48624 -9.092314,0.24913 -40.767934,1.07285 -44.958542,1.1691 l -1.106264,0.0254 -0.02604,-0.44485 c -0.0187,-0.31838 0.06297,-0.72877 0.287037,-1.44349 0.605298,-1.93058 0.845295,-3.52144 0.845295,-5.6034 0,-2.85106 -0.569655,-5.34261 -1.807907,-7.90746 -4.361069,-9.03329 -15.185322,-12.84548 -24.259806,-8.54406 -4.421605,2.0959 -7.926142,6.01543 -9.459457,10.57959 -0.665912,1.98216 -0.955267,3.74408 -0.959286,5.84108 -0.004,2.30024 0.343453,4.29719 1.123424,6.44901 0.174134,0.48039 0.316611,0.92842 0.316611,0.99563 0,0.17897 -0.314401,0.16228 -7.876108,-0.41799 z m 7.36016,-0.40806 c -0.323534,-0.83896 -0.75393,-2.43447 -0.949825,-3.52106 -0.22084,-1.22505 -0.267687,-3.99854 -0.09024,-5.34247 0.444211,-3.36421 1.691289,-6.37968 3.756466,-9.08319 0.55624,-0.72819 1.953474,-2.16197 2.755594,-2.82769 5.640526,-4.68127 13.517182,-5.59979 20.083041,-2.34192 6.532613,3.24135 10.507989,9.91793 10.244662,17.20575 -0.06754,1.86837 -0.462566,4.07358 -0.953731,5.32367 -0.05448,0.13854 -0.127233,0.48088 -0.161794,0.76076 -0.04928,0.39859 -0.03699,0.50888 0.05629,0.50888 0.06557,0 2.318301,-0.0596 5.006189,-0.13252 2.687894,-0.0729 10.303354,-0.27237 16.923211,-0.44331 6.619876,-0.17095 17.173638,-0.44958 23.452774,-0.61918 16.64495,-0.4496 34.38152,-0.91622 37.45809,-0.98545 1.47243,-0.0331 2.67715,-0.0707 2.67715,-0.0834 0,-0.0128 -0.0783,-0.35489 -0.17392,-0.7603 -0.41379,-1.75356 -0.56749,-4.44622 -0.35288,-6.18225 0.52337,-4.234 2.42916,-8.0811 5.41938,-10.93976 6.45591,-6.17189 16.18646,-6.77529 23.38351,-1.45001 3.96609,2.9346 6.62065,7.60816 7.1322,12.55684 0.19813,1.91649 -0.01,4.87575 -0.44729,6.37845 -0.0487,0.16715 -0.0718,0.32069 -0.0513,0.34121 0.0719,0.0719 2.31852,-0.34478 3.73891,-0.6934 3.49759,-0.85849 5.11325,-1.73062 7.00771,-3.78273 1.461,-1.58258 2.85828,-3.43787 4.02763,-5.34782 1.96416,-3.20814 2.98221,-6.58529 3.00897,-9.98162 0.009,-1.15537 0,-1.21535 -0.26688,-1.81902 -0.15196,-0.34333 -0.74482,-1.43853 -1.31749,-2.43378 -1.45759,-2.53312 -1.8763,-3.50173 -2.08053,-4.81283 -0.13589,-0.87236 0.0555,-2.14324 0.49092,-3.25994 0.0716,-0.18351 0.13011,-0.34998 0.13011,-0.36993 0,-0.0199 -0.229,0.0567 -0.50888,0.17026 -1.57492,0.63909 -3.763,1.00323 -6.4827,1.07884 -2.07643,0.0578 -3.93751,-0.0302 -7.83235,-0.37042 -2.47011,-0.2157 -5.64072,-0.46884 -8.4961,-0.6783 -3.03738,-0.22281 -12.08656,-0.13111 -14.60267,0.14798 -0.27916,0.031 -0.30723,0.023 -0.13275,-0.0373 0.1898,-0.0656 0.19609,-0.0787 0.0442,-0.0913 l -0.177,-0.0148 0.177,-0.0796 c 0.0974,-0.0438 1.093,-0.17953 2.21254,-0.30154 6.24108,-0.68025 11.30656,-0.7765 21.15176,-0.40188 1.21689,0.0463 2.65061,0.0831 3.18604,0.082 l 0.97351,-0.001 -1.68152,-0.48417 c -0.92485,-0.26628 -2.3443,-0.70365 -3.15435,-0.97191 -1.38236,-0.45769 -17.95147,-4.59913 -24.90049,-6.22376 -9.10401,-2.12845 -15.85042,-3.43283 -20.3995,-3.94412 -12.21641,-1.37308 -25.36613,-1.20527 -34.471157,0.43989 -8.76952,1.58455 -14.963027,3.91186 -29.780611,11.19059 l -4.292295,2.10848 -2.87629,0.27864 c -5.183508,0.50213 -11.60753,1.235 -14.798482,1.68825 -14.663281,2.08279 -21.041392,3.34775 -26.94578,5.34409 -4.916541,1.66233 -11.715365,4.51252 -13.1665655,5.51963 -0.8433238,0.58527 -0.9311758,1.38967 -0.487903,4.46768 0.3298013,2.29013 0.3162888,2.42119 -0.2811021,2.72596 -0.2453467,0.12516 -0.340217,0.22963 -0.3373478,0.37146 0.00992,0.49139 0.7747601,4.0673 0.8958129,4.18835 0.072851,0.0729 0.3470964,0.18907 0.6094398,0.25827 0.2776133,0.0733 0.5380784,0.20683 0.6231406,0.31959 0.080377,0.10657 0.5347586,1.69091 1.0097158,3.52076 0.4749533,1.82985 0.9000485,3.36682 0.9446552,3.41548 0.068371,0.0746 14.2177611,1.20139 14.3080831,1.13945 0.01703,-0.0116 -0.08965,-0.33381 -0.237052,-0.71591 z m 37.956064,-2.25023 c 0.004,-0.22972 0.391081,-2.0075 0.447409,-2.05806 0.08531,-0.0766 3.193042,-0.78175 4.693966,-1.0651 4.475802,-0.84495 8.440014,-1.17854 14.988439,-1.26132 7.047194,-0.0891 10.869531,0.0967 27.568079,1.34004 8.28795,0.61708 11.9514,0.78582 17.0807,0.78671 4.9546,6.7e-4 7.76294,-0.17253 11.32363,-0.69915 2.1258,-0.31441 2.1224,-0.31399 1.86302,-0.22832 l -0.22124,0.0731 0.22124,0.0385 c 0.41411,0.0719 -2.75207,0.62994 -5.1773,0.91245 -6.32921,0.73726 -12.91625,0.74897 -27.16983,0.0483 -14.928428,-0.73383 -19.811497,-0.83096 -26.373316,-0.52458 -6.645917,0.3103 -12.27883,1.08547 -17.124954,2.35662 -0.851811,0.22344 -1.678196,0.42503 -1.836398,0.44798 -0.255828,0.037 -0.287157,0.0187 -0.283445,-0.16709 z m 3.625855,-0.90454 c 6.268791,-1.45174 13.193553,-2.0922 22.610536,-2.09124 5.324449,6.7e-4 7.777448,0.0817 18.762212,0.62035 2.92055,0.14321 6.24596,0.30328 7.38985,0.35571 2.87012,0.13152 12.10742,0.1997 13.93892,0.10287 1.41806,-0.0749 1.31636,-0.0804 -1.77003,-0.0934 -5.58177,-0.0236 -9.60474,-0.23843 -21.77126,-1.16237 -10.268093,-0.77977 -14.573328,-0.98291 -20.797744,-0.98128 -7.652431,10e-4 -12.105278,0.34969 -17.213453,1.3441 -1.601716,0.31181 -3.999582,0.86987 -4.088221,0.95146 -0.03379,0.0311 -0.155464,0.45594 -0.270425,0.94409 l -0.209008,0.8876 1.024169,-0.28028 c 0.563298,-0.15415 1.64079,-0.42306 2.394454,-0.5976 z m 65.601598,-1.1766 c -0.0599,-0.0243 -0.17938,-0.0256 -0.26549,-0.004 -0.0861,0.0224 -0.0371,0.0423 0.10893,0.0441 0.14604,6.7e-4 0.21648,-0.0166 0.15656,-0.0409 z m 1.36825,-0.0839 c -0.0294,-0.0294 -0.10574,-0.0326 -0.16963,-0.007 -0.0706,0.0282 -0.0496,0.0493 0.0536,0.0534 0.0933,0.004 0.14557,-0.0171 0.11616,-0.0465 z m 6.10657,-0.70801 c -0.0294,-0.0294 -0.10574,-0.0326 -0.16964,-0.007 -0.0706,0.0282 -0.0495,0.0493 0.0534,0.0534 0.0933,0.004 0.14558,-0.0171 0.11616,-0.0465 z m 0.4886,-0.0936 c -0.0608,-0.0246 -0.16041,-0.0246 -0.22125,0 -0.0608,0.0246 -0.011,0.0446 0.11063,0.0446 0.12168,0 0.17147,-0.0202 0.11062,-0.0446 z m 0.53268,-0.088 c -0.0599,-0.0243 -0.17938,-0.0256 -0.2655,-0.004 -0.0861,0.0225 -0.037,0.0422 0.10894,0.0441 0.14603,6.7e-4 0.21649,-0.0166 0.15656,-0.0408 z M 5.6826432,267.72793 c -0.01877,-0.0608 -0.055187,-0.54039 -0.080967,-1.06564 l -0.046834,-0.95501 0.6368809,-0.40885 c 2.6141505,-1.67817 6.1465699,-3.29617 10.0179899,-4.58869 9.961316,-3.32571 21.19823,-5.12392 35.090675,-5.61549 2.602942,-0.0921 10.404187,-0.0919 9.071361,1.8e-4 l -0.796505,0.055 0.796505,0.0298 c 0.87458,0.0328 0.314046,0.0656 -4.557805,0.26726 -15.494375,0.64114 -29.352218,3.19841 -39.958241,7.37372 -3.949964,1.55499 -7.1944371,3.16249 -9.4426209,4.67839 -0.5370187,0.36208 -0.675975,0.4057 -0.7304485,0.22922 z m 1.0322875,-0.71922 c 3.1201856,-2.02504 7.6445483,-4.05754 13.0348283,-5.85567 9.183857,-3.06364 19.670552,-4.91309 32.789643,-5.78287 1.711521,-0.11346 0.245172,-0.11846 -2.345277,-0.008 -13.638773,0.5817 -24.741162,2.43291 -34.335523,5.72506 -3.21871,1.10446 -6.5256136,2.60618 -8.9193671,4.05045 -1.0761951,0.64931 -1.1283864,0.69417 -1.1283864,0.96984 0,0.36677 0.1044073,1.377 0.1423102,1.377 0.015685,0 0.3585324,-0.21412 0.761772,-0.47583 z M 55.570569,255.20895 c -0.109532,-0.0212 -0.288747,-0.0212 -0.398252,0 -0.109519,0.0212 -0.0199,0.0383 0.199119,0.0383 0.219038,0 0.308639,-0.0172 0.199133,-0.0383 z m 34.803032,-1.54855 c -6.61987,-0.0373 -12.25518,-0.0945 -12.522894,-0.127 -0.476756,-0.058 -0.480401,-0.0606 -0.176998,-0.12495 0.370442,-0.0787 5.132087,-0.21628 13.629165,-0.3939 12.871136,-0.26907 18.348066,-0.449 24.382036,-0.80102 11.00085,-0.64178 18.41621,-1.68025 23.07717,-3.2318 2.61824,-0.87156 4.04807,-1.81082 4.97554,-3.26844 0.42006,-0.66019 0.90228,-1.69085 0.98528,-2.10589 0.0314,-0.15715 0.11201,-0.28363 0.18067,-0.28363 0.17877,0 0.8055,1.02303 0.97277,1.58787 0.17249,0.58249 0.11756,1.42434 -0.12895,1.97662 -0.23693,0.53077 -0.823,1.23831 -1.41298,1.70586 -4.13645,3.27796 -15.04962,4.88804 -34.18082,5.04285 -2.94486,0.0239 -5.89195,0.0541 -6.54908,0.0672 -0.65711,0.0133 -6.611026,-0.007 -13.230909,-0.0438 z m -11.837017,-0.22002 c -0.08521,-0.0223 -0.224566,-0.0223 -0.309746,0 -0.08521,0.0223 -0.01549,0.0405 0.154876,0.0405 0.170368,0 0.240057,-0.0182 0.15487,-0.0405 z m 1.106271,-0.003 c -0.158195,-0.0196 -0.417069,-0.0196 -0.575257,0 -0.158195,0.0196 -0.02871,0.0357 0.287632,0.0357 0.316383,0 0.445813,-0.0161 0.287625,-0.0357 z m 32.634765,-0.024 c 16.23619,-0.35189 25.15434,-1.49982 29.9576,-3.85608 1.34687,-0.66071 2.18404,-1.26501 2.78997,-2.01385 0.5195,-0.64205 0.70582,-1.13813 0.70582,-1.87923 0,-0.57908 -0.11104,-0.9269 -0.50331,-1.57631 l -0.23988,-0.39714 -0.3342,0.79818 c -0.40678,0.97154 -0.58596,1.27603 -1.19675,2.03365 -1.92202,2.38407 -7.28862,3.95834 -17.28457,5.07034 -6.60624,0.73491 -14.63005,1.1752 -26.727339,1.46659 -4.486379,0.10805 -11.148716,0.25577 -12.87691,0.28549 -1.883318,0.0324 6.909732,0.11223 14.779689,0.13421 3.84537,0.0106 8.76381,-0.0189 10.92988,-0.0659 z m -34.845611,0.20382 c 0.0861,-0.0225 0.205583,-0.0209 0.265511,0.004 0.05989,0.0243 -0.01055,0.0427 -0.156566,0.0409 -0.14603,-6.6e-4 -0.195047,-0.0216 -0.108945,-0.0441 z m -11.528946,-0.68872 c 0,-0.24397 4.295379,-2.69992 7.965102,-4.55418 3.458612,-1.74761 6.054002,-2.90444 9.260972,-4.12787 15.171874,-5.78792 30.331293,-7.04481 49.990493,-4.14477 4.20719,0.62063 13.75095,2.34522 14.33716,2.59079 0.17471,0.0732 0.1746,0.0749 -0.009,0.1333 -0.10237,0.0326 -1.61572,-0.18287 -3.36303,-0.47867 -8.25738,-1.39792 -14.39177,-2.1435 -21.23114,-2.58044 -2.30642,-0.14735 -10.10918,-0.14755 -12.12464,-2.6e-4 -8.91289,0.65112 -15.62127,2.04531 -23.806779,4.94769 -6.693152,2.37323 -10.204814,4.07423 -16.130874,7.81356 l -0.466179,0.29416 -1.923341,0.11362 c -2.528243,0.14933 -2.49861,0.14941 -2.49861,-0.007 z m 2.655029,-0.23302 1.637272,-0.0984 1.460267,-0.90803 c 5.203872,-3.23592 8.601322,-4.84672 15.191932,-7.20279 13.041436,-4.66218 25.533617,-6.02099 41.537247,-4.51809 1.90987,0.17935 4.99383,0.52827 6.15082,0.69588 0.75231,0.10899 1.2243,0.10579 0.66376,-0.004 -1.77508,-0.34925 -8.03257,-1.12986 -11.23963,-1.40214 -4.0412,-0.34307 -5.34498,-0.39677 -9.64661,-0.39733 -4.2016,-5.4e-4 -5.53749,0.0539 -8.71736,0.35561 -7.555755,0.7168 -14.910246,2.43215 -22.16952,5.1708 -4.795131,1.80903 -10.709533,4.67571 -15.554061,7.53901 -0.7423,0.43873 -1.349633,0.8135 -1.349633,0.83281 0,0.0524 0.244811,0.0449 2.035516,-0.0627 z m 78.789758,-9.96078 c -0.0599,-0.0243 -0.1794,-0.0256 -0.26551,-0.004 -0.0861,0.0224 -0.037,0.0423 0.10894,0.0441 0.14603,0.001 0.21649,-0.0166 0.15657,-0.0409 z m -0.53269,-0.0891 c -0.0608,-0.0246 -0.16041,-0.0246 -0.22126,0 -0.0608,0.0246 -0.011,0.0447 0.11063,0.0447 0.1217,0 0.17146,-0.0201 0.11063,-0.0447 z m -9.69272,-1.67638 c -0.0294,-0.0294 -0.10573,-0.0326 -0.16962,-0.007 -0.0706,0.0282 -0.0495,0.0493 0.0534,0.0534 0.0933,0.004 0.14558,-0.0171 0.11615,-0.0465 z m -0.57341,-0.0936 c -0.0608,-0.0246 -0.16039,-0.0246 -0.22125,0 -0.0608,0.0246 -0.011,0.0447 0.11063,0.0447 0.12169,0 0.17147,-0.02 0.11062,-0.0447 z m -0.52933,-0.088 c -0.0599,-0.0243 -0.17939,-0.0256 -0.26549,-0.004 -0.0861,0.0224 -0.037,0.0423 0.10894,0.0441 0.14604,0.001 0.21648,-0.0165 0.15655,-0.0407 z m 17.25604,9.64605 c -0.0608,-0.0246 -0.16042,-0.0246 -0.22126,0 -0.0608,0.0246 -0.011,0.0447 0.11062,0.0447 0.12169,0 0.17148,-0.0202 0.11064,-0.0447 z m 3.13994,-0.26036 c -0.0294,-0.0294 -0.10574,-0.0326 -0.16963,-0.007 -0.0706,0.0282 -0.0497,0.0493 0.0534,0.0534 0.0933,0.004 0.14557,-0.0171 0.11615,-0.0465 z"
       id="path826"
       inkscape:connector-curvature="0" />
  </g>
</svg>
