<?xml version="1.0" encoding="UTF-8" standalone="no"?>
<!-- Created with Inkscape (http://www.inkscape.org/) -->

<svg
   xmlns:dc="http://purl.org/dc/elements/1.1/"
   xmlns:cc="http://creativecommons.org/ns#"
   xmlns:rdf="http://www.w3.org/1999/02/22-rdf-syntax-ns#"
   xmlns:svg="http://www.w3.org/2000/svg"
   xmlns="http://www.w3.org/2000/svg"
   xmlns:sodipodi="http://sodipodi.sourceforge.net/DTD/sodipodi-0.dtd"
   xmlns:inkscape="http://www.inkscape.org/namespaces/inkscape"
   width="210mm"
   height="297mm"
   viewBox="0 0 210 297"
   version="1.1"
   id="svg8"
   inkscape:version="0.92.4 (5da689c313, 2019-01-14)"
   sodipodi:docname="IzukuMidoriya.svg">
  <defs
     id="defs2" />
  <sodipodi:namedview
     id="base"
     pagecolor="#ffffff"
     bordercolor="#666666"
     borderopacity="1.0"
     inkscape:pageopacity="0.0"
     inkscape:pageshadow="2"
     inkscape:zoom="0.98994949"
     inkscape:cx="190.90797"
     inkscape:cy="523.2511"
     inkscape:document-units="mm"
     inkscape:current-layer="layer1"
     showgrid="false"
     inkscape:window-width="1598"
     inkscape:window-height="1486"
     inkscape:window-x="261"
     inkscape:window-y="152"
     inkscape:window-maximized="0"
     inkscape:pagecheckerboard="true" />
  <metadata
     id="metadata5">
    <rdf:RDF>
      <cc:Work
         rdf:about="">
        <dc:format>image/svg+xml</dc:format>
        <dc:type
           rdf:resource="http://purl.org/dc/dcmitype/StillImage" />
        <dc:title></dc:title>
      </cc:Work>
    </rdf:RDF>
  </metadata>
  <g
     inkscape:label="Layer 1"
     inkscape:groupmode="layer"
     id="layer1">
    <path
       style="fill:#000000;stroke-width:0.84696388"
       d="m 54.647373,284.8612 c -0.694836,-4.13521 -1.455226,-6.35222 -2.178675,-6.35222 -0.611223,0 -3.828573,0.61363 -7.149668,1.36363 -9.237235,2.08603 -10.828404,1.49436 -20.098201,-7.47332 -4.372382,-4.22987 -7.949785,-8.24249 -7.949785,-8.91691 0,-2.09299 3.516671,-12.92321 4.196288,-12.92321 0.353896,0 0.849248,-3.00261 1.100786,-6.67249 0.283243,-4.13239 0.997071,-7.4962 1.87515,-8.83632 1.089241,-1.6624 1.207578,-2.55665 0.510647,-3.85889 -1.20242,-2.24675 -1.157977,-9.06761 0.07422,-11.3904 0.539759,-1.01751 1.683159,-2.34802 2.540893,-2.95673 1.190076,-0.84456 1.559511,-2.20532 1.559511,-5.74422 0,-4.83113 1.807478,-10.51183 3.344639,-10.51183 0.505114,0 0.890181,-1.85592 0.890181,-4.29049 0,-6.51963 0.883343,-7.56699 6.382029,-7.56699 3.32935,0 4.628501,-0.32211 4.628501,-1.14759 0,-1.82895 -14.19641,-14.33718 -19.208404,-16.92418 -1.480935,-0.7644 -2.914244,-2.08814 -3.185129,-2.94161 -0.45376,-1.42967 -5.53363,-4.19606 -13.3906895,-7.29231 -3.6569804,-1.44111 -3.9807053,-2.9724 -1.4914687,-7.05505 1.1600507,-1.90263 2.320572,-2.75265 3.7581832,-2.75265 2.813297,0 3.33164,-1.15552 1.330657,-2.96637 -1.852414,-1.67642 -4.5487135,-8.39748 -5.4356254,-13.54941 -0.320775,-1.86332 -1.1594545,-4.93834 -1.8637335,-6.83339 -0.7042813,-1.89503 -1.1599219,-5.13466 -1.0125391,-7.19918 0.2559507,-3.58538 0.3966387,-3.76597 3.1377945,-4.02783 5.4433345,-0.51996 6.3606985,0.18568 8.8557915,6.81204 1.277078,3.39162 2.877312,7.41819 3.55607,8.94794 0.678757,1.52976 1.234107,3.28106 1.234107,3.89183 0,0.61074 0.762265,1.80026 1.693927,2.64341 1.688169,1.52776 1.693928,1.47934 1.693928,-14.24759 v -15.78058 l 2.113672,-1.38494 c 1.483731,-0.97217 2.997633,-1.2191 5.079673,-0.82849 4.203079,0.78849 5.51111,3.74766 5.51111,12.46778 v 6.98966 l 3.512296,-3.34799 c 3.564399,-3.39767 3.662283,-2.86126 0.316359,1.73377 -2.269936,3.11733 -4.677175,14.80601 -4.676275,22.70626 4.41e-4,3.8745 -0.296228,5.58351 -0.904047,5.20787 -0.497588,-0.30753 -0.700116,-1.09229 -0.450064,-1.74393 0.250052,-0.65162 0.172671,-1.18477 -0.171955,-1.18477 -2.07874,0 -6.90815,-38.01164 -5.103057,-40.16547 0.394822,-0.47108 1.58958,-0.38153 3.007209,0.22548 l 2.352127,1.00709 -1.999499,-1.70765 c -2.46274,-2.10328 -2.821847,-2.10949 -5.313319,-0.0921 -1.957543,1.58513 -1.994064,1.88494 -1.934434,15.88058 0.04376,10.26986 0.459639,15.92538 1.484965,20.19369 0.783302,3.26082 1.6712,8.97781 1.973109,12.70445 0.301908,3.72666 1.112625,7.64516 1.801593,8.70784 0.688967,1.06264 1.057721,2.12703 0.819453,2.36529 -0.652373,0.65239 -4.053547,-5.46855 -4.62424,-8.32198 -0.292266,-1.46135 -0.105364,-2.74289 0.450075,-3.08617 1.479493,-0.91439 -1.808128,-6.77086 -7.056859,-12.57089 -4.51154,-4.98541 -7.161872,-10.40006 -7.186097,-14.68126 -0.02116,-3.73766 -2.650487,-10.12738 -4.7273177,-11.48818 -4.5655992,-2.99152 -4.6818657,0.38917 -0.5201596,15.12471 2.9171913,10.329 2.7159253,9.89834 7.1158563,15.22629 3.281808,3.97401 10.564775,14.75873 12.539196,18.56823 1.008902,1.94658 -8.222344,-7.64493 -9.591944,-9.96632 -0.372523,-0.6314 -1.237332,-1.14798 -1.921807,-1.14798 -0.904535,0 -1.099321,-0.57844 -0.71306,-2.11742 0.493956,-1.96807 0.314028,-2.1174 -2.551336,-2.1174 -1.997219,0 -3.2593802,0.46023 -3.5843062,1.30695 -0.6727539,1.75318 0.336614,2.63777 1.5851692,1.38921 1.23911,-1.23912 3.204346,-1.31157 3.204346,-0.11819 0,0.48626 -0.476418,0.80728 -1.058704,0.71338 -2.157569,-0.34788 -5.6621801,1.8631 -5.7040373,3.59855 -0.00711,0.29578 1.9879831,1.18728 4.4335903,1.98117 5.380202,1.74649 9.611474,4.22627 12.620786,7.39651 1.235015,1.30105 2.820951,2.36558 3.524308,2.36558 0.703356,0 2.170259,1.05242 3.259785,2.33869 1.089529,1.28629 4.273818,4.09842 7.076203,6.24915 2.80238,2.15076 5.615323,4.88225 6.25098,6.06997 0.635658,1.18774 1.773004,2.17552 2.527433,2.19507 0.754431,0.0195 2.61529,0.28151 4.135246,0.58217 2.441401,0.48293 2.697909,0.36247 2.200414,-1.03328 -0.309728,-0.86894 -1.135982,-2.24689 -1.836119,-3.0621 -2.443425,-2.84499 0.223404,-1.45517 3.637885,1.89587 4.260946,4.1818 9.884902,5.43065 12.833967,2.8499 1.734011,-1.51747 1.761845,-1.85908 0.837057,-10.27438 -0.918378,-8.35698 -1.102226,-8.89246 -4.602347,-13.40506 -2.83366,-3.65335 -3.895673,-4.49295 -4.767715,-3.76922 -0.871927,0.72363 -1.212961,0.45509 -1.530316,-1.20503 -0.224598,-1.17493 -0.08008,-2.13621 0.321154,-2.13621 0.401234,0 0.729514,-0.57171 0.729514,-1.27046 0,-2.58834 -1.636512,-1.16273 -2.187634,1.90569 -1.043005,5.80702 -2.109824,6.01622 -1.720232,0.33733 l 0.369062,-5.37968 -2.465415,2.36201 c -2.210721,2.11801 -3.717347,1.9419 -1.589638,-0.1858 1.163462,-1.16347 2.648098,-8.95587 2.761954,-14.49664 0.100857,-4.90831 0.03394,-4.80754 2.363745,-3.56065 1.389532,0.74364 1.877774,0.49825 3.040962,-1.5285 l 1.385661,-2.41437 2.441935,4.64219 c 1.343064,2.5532 2.235442,5.24197 1.983063,5.97504 -0.315965,0.91777 -0.07245,0.83436 0.781923,-0.26781 1.105959,-1.42673 1.060166,-1.83031 -0.421404,-3.71382 -0.91421,-1.16223 -1.664325,-2.53815 -1.666923,-3.05762 -0.0026,-0.51949 -0.415272,-2.42309 -0.917056,-4.23028 l -0.912331,-3.28578 -4.376469,0.51034 c -3.103018,0.36185 -4.844564,1.07149 -5.985174,2.43883 -2.577311,3.08961 -6.187672,11.67921 -7.312856,17.3984 -0.5714,2.90438 -1.41491,5.28067 -1.874463,5.28067 -0.486877,0 -0.57497,-0.79521 -0.211099,-1.90566 0.34345,-1.04812 0.913618,-6.66984 1.26704,-12.49271 0.715325,-11.78551 1.13867,-13.69331 3.852794,-17.36275 1.033664,-1.3975 3.110952,-4.93318 4.616198,-7.8571 2.359762,-4.58378 2.91736,-5.16723 4.047352,-4.23483 1.078056,0.88955 1.240812,0.87035 0.917454,-0.10814 -0.814469,-2.46469 -3.931322,-2.6688 -6.590132,-0.43157 l -2.518155,2.11889 -0.546357,-2.91232 c -0.306923,-1.63605 -0.132624,-3.68539 0.397735,-4.67638 0.748613,-1.3988 0.710011,-1.67423 -0.186441,-1.33023 -0.621793,0.2386 -1.608116,1.75457 -2.191832,3.36881 -0.583713,1.61422 -1.417759,2.93497 -1.853438,2.93497 -1.248268,0 -0.864732,-9.50809 0.478304,-11.857506 1.669496,-2.920467 1.570762,-3.387857 -0.715694,-3.387857 -1.092379,0 -2.572505,-0.666973 -3.289174,-1.482178 -2.532972,-2.88123 -4.888252,-8.656136 -4.888252,-11.98551 0,-3.344112 1.086445,-5.139714 2.10887,-3.485396 0.575154,0.930617 5.662284,1.138703 8.595661,0.351597 1.026722,-0.275495 2.786233,-2.27712 4.061738,-4.620642 1.237679,-2.274027 2.614065,-4.359396 3.05863,-4.634153 0.444568,-0.274757 0.808305,-0.831369 0.808305,-1.236914 0,-0.405548 -1.715102,0.221233 -3.811337,1.392842 -3.179062,1.776812 -3.811337,1.904634 -3.811337,0.770509 0,-1.741198 3.440202,-7.14502 6.03915,-9.486214 1.103852,-0.994377 3.53154,-2.597349 5.394863,-3.562162 l 3.387855,-1.754207 -2.755703,-0.03744 c -1.515635,-0.02059 -4.177929,0.724837 -5.916205,1.656498 -5.657969,3.03249 -7.199726,1.746573 -2.573316,-2.146296 1.501328,-1.263282 3.597561,-2.692307 4.658303,-3.175614 2.406751,-1.096588 2.426256,-2.08536 0.09019,-4.571988 -1.011134,-1.076304 -1.550027,-2.244268 -1.197537,-2.595479 0.352487,-0.351208 1.370347,0.261212 2.261911,1.360937 1.909595,2.355451 2.157526,1.724088 0.385174,-0.980864 -0.830466,-1.267449 -1.177739,-3.757798 -1.058704,-7.592094 0.09741,-3.138277 0.264676,-5.706308 0.371666,-5.706736 0.106975,-4.29e-4 0.965787,1.51101 1.908437,3.358756 1.824945,3.577193 3.862252,5.110102 6.791552,5.110102 1.450289,0 1.695255,-0.35108 1.241815,-1.779742 -0.509305,-1.604673 -0.318721,-1.725677 1.937505,-1.230127 3.042324,0.668207 13.951731,-1.915875 13.522656,-3.203081 -0.166541,-0.499631 -1.4968,-1.217816 -2.956129,-1.595964 -1.45934,-0.378153 -2.874157,-1.044859 -3.144064,-1.481574 -0.713549,-1.154548 6.041537,-2.761138 10.21108,-2.428546 l 3.573173,0.285021 0.397954,-4.234818 c 0.53594,-5.702977 2.133075,-9.704491 3.200067,-8.017458 0.685492,1.083819 0.788348,1.080168 0.808777,-0.02869 0.03464,-1.886273 8.381023,-10.1635666 10.248253,-10.1635666 0.88648,0 1.61177,0.1296685 1.61177,0.2881652 0,0.1584933 -1.1365,2.3500076 -2.52554,4.8700414 -1.38904,2.520033 -2.532453,5.317085 -2.540883,6.215672 -0.0141,1.405755 1.574753,6.991769 2.284043,8.034586 0.13161,0.19348 2.81241,-2.132306 5.95737,-5.168413 5.70166,-5.504283 11.49079,-9.18353 14.36577,-9.130089 1.32369,0.0246 1.27428,0.229766 -0.38973,1.617947 -1.04813,0.874375 -1.90568,1.81453 -1.90568,2.089232 0,1.109541 14.54687,0.460162 17.52001,-0.782102 1.68699,-0.70486 3.26429,-1.084491 3.50516,-0.843623 0.85513,0.85513 -3.45835,4.547029 -8.37325,7.166637 -4.53206,2.415561 -7.57014,5.23859 -7.57014,7.034293 0,0.37857 0.73722,0.293766 1.63826,-0.188452 0.90104,-0.482222 4.0454,-0.874812 6.98745,-0.872427 4.19835,0.0035 6.07807,0.45327 8.73706,2.090978 1.86333,1.147651 4.05486,2.098531 4.87005,2.113069 0.8152,0.01459 1.48217,0.460656 1.48217,0.991372 0,0.657311 -1.41756,0.819575 -4.44655,0.508975 l -4.44656,-0.455962 4.9155,1.535044 c 3.39267,1.059487 6.2021,2.738523 9.06856,5.41977 4.00083,3.742299 4.34851,3.886697 9.4829,3.938414 4.51093,0.04543 5.00449,0.189016 3.2124,0.934512 l -2.1174,0.880824 1.93198,0.900587 c 1.53432,0.715218 2.58031,0.541819 5.08178,-0.84243 1.7324,-0.958661 4.48377,-2.014353 6.11417,-2.345981 l 2.96437,-0.602963 -3.81133,3.950133 c -2.09623,2.17257 -5.05003,4.720355 -6.56397,5.661741 -3.11724,1.93833 -3.44738,2.932731 -1.20947,3.643011 0.84872,0.269378 2.4425,2.105447 3.54173,4.080154 1.09922,1.974707 2.75982,4.633808 3.6902,5.90911 2.29518,3.146039 1.07402,4.011369 -1.79647,1.272999 -2.73989,-2.613776 -6.97862,-4.464881 -6.97862,-3.047645 0,0.509105 1.47971,2.405339 3.28821,4.213857 5.15814,5.158137 9.68992,4.598777 16.8145,-2.075416 5.63726,-5.280928 3.51658,0.282476 -2.60472,6.833127 -1.40818,1.506969 -2.39582,2.84854 -2.19476,2.981269 0.20108,0.132722 2.17597,1.08632 4.38868,2.119089 2.2127,1.032772 4.02306,2.263853 4.02306,2.735737 0,0.47188 -1.71105,0.857974 -3.80234,0.857974 -3.3616,0 -4.3308,0.478539 -8.36052,4.127855 -2.50697,2.270314 -4.99659,4.274019 -5.53254,4.452663 -0.68904,0.229692 -0.50528,1.6873 0.62751,4.976998 l 1.60193,4.6522 3.70636,-0.25051 c 2.95838,-0.199982 3.4934,-0.03764 2.65119,0.804602 -1.57144,1.57145 -1.28412,2.40384 0.85053,2.46397 1.8618,0.0524 1.85751,0.0729 -0.18645,0.88864 -1.15064,0.45923 -3.351,1.79517 -4.88972,2.96881 -1.53869,1.17361 -4.46924,2.70342 -6.51231,3.39958 l -3.71469,1.2657 -0.59454,5.24013 c -0.78164,6.8894 -1.58954,8.34731 -2.76192,4.98422 -1.04572,-2.99975 -3.6257,-4.85931 -7.808,-5.62769 l -2.96438,-0.54455 2.33501,1.98016 c 2.90197,2.46094 1.79183,4.0246 -2.85729,4.0246 -1.75213,0 -3.31545,0.46941 -3.52577,1.05871 -0.25821,0.72339 -1.09488,0.39936 -2.64189,-1.0232 -2.26288,-2.08082 -2.26549,-2.08111 -5.18017,-0.51142 -3.60666,1.9423 -4.57989,4.42758 -2.34646,5.99193 0.88781,0.62185 3.05019,4.03611 4.80524,7.58723 3.02121,6.11301 3.44623,6.56948 7.98657,8.57743 7.14469,3.15971 8.34026,4.6158 9.02273,10.98851 l 0.58304,5.44417 h 3.6533 c 2.40552,0 3.81383,0.41833 4.12328,1.22478 0.25849,0.67361 2.54924,2.20841 5.09053,3.41063 5.22929,2.47383 5.35905,2.6918 6.51536,10.94422 0.46374,3.30987 1.75184,7.92364 2.86242,10.25277 5.72328,12.00322 12.27096,26.87458 13.98408,31.76114 1.06151,3.0279 2.81263,7.79207 3.8914,10.58706 1.92373,4.98418 5.52935,31.148 4.44229,32.23504 -0.26222,0.26224 -4.70309,-1.64279 -9.86858,-4.23337 -5.1655,-2.5906 -9.5887,-4.71017 -9.82936,-4.71017 -0.24068,0 -0.43761,2.77117 -0.43761,6.15815 v 6.15815 l -7.42771,7.39329 -7.42769,7.39329 -2.75386,-1.03946 c -2.17591,-0.82131 -3.10321,-0.82131 -4.41834,-3e-5 -0.91541,0.5717 -2.76644,1.03947 -4.11336,1.03947 -1.3469,0 -3.90349,0.60772 -5.68129,1.35053 -2.95839,1.23611 -3.31599,1.23611 -4.21989,0 -0.54313,-0.74281 -1.20431,-1.35053 -1.46928,-1.35053 -0.76871,0 -3.14285,8.89577 -3.14285,11.77609 v 2.62228 H 100.43868 55.714733 Z M 108.151,263.43843 c -0.23701,-1.76719 -0.0403,-4.62807 0.43727,-6.35752 0.8517,-3.08465 0.80103,-3.19106 -2.66457,-5.59549 -1.94304,-1.34806 -4.67618,-3.70444 -6.073673,-5.23641 -1.892073,-2.07411 -1.104481,-1.66319 3.084473,1.60938 3.09395,2.41708 6.17921,4.39471 6.85618,4.39471 2.29184,0 4.02782,-3.07228 5.94,-10.51246 l 1.9056,-7.41451 -1.99949,-1.62356 c -1.09975,-0.89297 -1.67143,-1.67724 -1.27045,-1.74283 0.40096,-0.0656 -1.17662,-0.38346 -3.50578,-0.7064 -2.32915,-0.32293 -5.18765,-0.8491 -6.35223,-1.16926 -1.91841,-0.52737 -2.31138,-0.1625 -4.18101,3.88254 -4.788124,10.35911 -4.650472,8.92677 -1.368743,14.24356 2.925313,4.7394 2.946723,4.84432 2.082923,10.20795 -0.85131,5.28621 -0.81829,5.4662 1.34427,7.32636 1.21934,1.04885 3.11232,1.90698 4.20662,1.90698 1.81423,0 1.95158,-0.28317 1.55861,-3.21304 z m 3.98001,-0.59828 c 1.09405,-1.16458 1.79864,-2.11742 1.56573,-2.11742 -0.23293,0 -1.31864,0.95284 -2.4127,2.11742 -1.09407,1.16458 -1.79862,2.11741 -1.56572,2.11741 0.23293,0 1.31863,-0.95283 2.41269,-2.11741 z m -17.465009,-3.5996 c 1.72737,-5.88026 1.526856,-7.43511 -1.547994,-12.0043 -3.579713,-5.31943 -3.511309,-7.27521 0.570934,-16.32379 1.777421,-3.93976 3.108868,-5.79129 4.359966,-6.06308 1.05404,-0.22902 0.747179,-0.33558 -0.739774,-0.25696 -2.221995,0.11748 -2.880574,0.80353 -5.247349,5.4661 -4.088782,8.05488 -4.364196,11.67083 -1.276933,16.76515 2.236173,3.68997 2.471662,4.70819 2.088318,9.02903 -0.277556,3.12817 -0.112103,4.87003 0.462684,4.87003 0.492116,0 1.090685,-0.66698 1.330148,-1.48218 z m -9.418292,-13.26831 c -1.842072,-2.87721 -2.063371,-3.97729 -1.670879,-8.30573 0.454234,-5.00955 3.740435,-13.09089 6.12956,-15.07368 0.688289,-0.57123 3.061615,-1.2308 5.274051,-1.46568 5.887259,-0.62502 9.744209,-4.44653 4.487796,-4.44653 -4.761256,0 -11.490906,1.86582 -14.784034,4.09894 -2.456574,1.66583 -4.057062,3.84227 -6.216661,8.45381 -1.5996,3.41572 -3.084087,6.03467 -3.298869,5.81988 -0.214793,-0.21479 0.411888,-2.62612 1.392635,-5.35851 0.980746,-2.73236 1.804789,-5.34909 1.831213,-5.81493 0.176966,-3.1196 -0.590353,-8.56174 -1.272136,-9.02229 -0.449971,-0.30394 0.782651,-1.36929 2.739136,-2.36742 1.956475,-0.99812 3.782559,-2.40195 4.057951,-3.11961 0.275402,-0.71767 -0.219578,-3.61737 -1.099978,-6.44379 -1.27216,-4.08417 -2.273069,-5.62975 -4.876786,-7.53037 -1.801858,-1.31532 -4.660361,-2.61227 -6.352225,-2.88214 -1.691875,-0.26989 -6.125196,-1.20654 -9.851837,-2.08151 -5.174878,-1.21497 -7.77623,-1.41577 -11.01053,-0.84987 -2.329152,0.40753 -6.594412,0.76367 -9.478359,0.79145 -2.883946,0.0279 -5.442672,0.37268 -5.686056,0.76648 -0.243383,0.39381 -0.700077,2.32672 -1.014871,4.29532 l -0.572357,3.57931 3.294038,-0.68156 c 5.515965,-1.14129 22.350727,-0.13205 22.350727,1.33983 0,1.17889 -6.871571,3.79007 -9.610189,3.65184 -1.468934,-0.0741 -5.529292,-0.47813 -9.023017,-0.89778 -3.493726,-0.41964 -6.947621,-0.45838 -7.675326,-0.086 -1.419768,0.72635 -3.549152,6.53191 -2.825351,7.70304 0.240395,0.38896 2.606107,0.72792 5.257138,0.75326 4.950778,0.0474 12.442731,2.32675 12.442731,3.7857 0,0.80929 -4.266248,2.47409 -8.717598,3.40187 -1.261112,0.26284 -4.659334,0.45365 -7.551605,0.42402 -5.954552,-0.061 -7.022302,0.8911 -7.022302,6.26158 0,2.73718 0.218164,3.01727 2.329151,2.99029 1.281032,-0.0171 4.80652,-0.57468 7.834414,-1.24068 3.027895,-0.66604 7.734467,-1.22434 10.45905,-1.24071 5.45174,-0.0328 11.428916,2.13605 9.953409,3.61157 -0.58269,0.58269 -1.282246,0.51047 -2.166839,-0.22367 -1.083831,-0.89948 -1.306343,-0.85519 -1.306343,0.26019 0,2.44247 -10.659226,6.7805 -14.660224,5.96632 -2.122101,-0.43182 -2.320791,-0.75031 -1.838372,-2.94673 0.336476,-1.53198 0.195374,-2.4626 -0.373385,-2.4626 -0.502842,0 -0.91426,0.95283 -0.91426,2.11741 0,1.90566 -0.338785,2.1174 -3.387855,2.1174 -3.444051,0 -4.602618,1.21641 -1.905668,2.00082 0.815203,0.2371 0.338785,0.36033 -1.058705,0.27383 -2.031976,-0.12582 -2.593952,0.21569 -2.805814,1.70475 -0.533365,3.7487 1.089484,5.03496 7.640405,6.05563 6.570513,1.02377 8.166064,0.81123 18.131107,-2.41508 l 6.026421,-1.95114 7.642819,3.09433 c 4.203553,1.70188 8.418518,3.09436 9.366612,3.09436 1.071211,0 3.752003,2.28473 7.081361,6.03512 l 5.357599,6.03511 0.536194,-4.12945 c 0.455633,-3.50885 0.217125,-4.62786 -1.587087,-7.44594 z m -50.34923,-10.39002 c 0.611402,-0.24466 1.341909,-0.21458 1.623348,0.0667 0.281439,0.28146 -0.218801,0.48162 -1.11164,0.44487 -0.986666,-0.0408 -1.18736,-0.24134 -0.511708,-0.51171 z M 60.2008,201.07976 c 1.018606,-0.74762 3.114843,-1.54869 4.658302,-1.78015 l 2.806291,-0.42086 -2.540892,1.17354 c -1.39749,0.64546 -3.493726,1.44654 -4.6583,1.78017 l -2.117411,0.6066 z m -27.378123,30.42271 c 0.347977,-0.9068 -0.08125,-1.27043 -1.499605,-1.27043 -1.092919,0 -2.46159,0.57169 -3.041498,1.27043 -0.897578,1.08152 -0.674569,1.27045 1.499607,1.27045 1.48889,0 2.757292,-0.52982 3.041496,-1.27045 z m 85.367353,-3.1761 c 0.71554,-0.58229 2.14832,-2.29738 3.18391,-3.81136 1.03562,-1.51392 2.21621,-2.75261 2.62353,-2.75261 0.40734,0 0.88651,1.61982 1.06481,3.5996 l 0.32422,3.5996 0.14789,-3.91939 c 0.16285,-4.31403 -0.59033,-5.33066 -4.58079,-6.18263 -2.34699,-0.50112 -2.97392,-0.14672 -6.19345,3.50179 -5.54384,6.28235 -5.45045,6.03299 -2.40181,6.41219 1.50533,0.18722 3.14056,0.40142 3.6338,0.47597 0.49326,0.0745 1.48229,-0.34087 2.19783,-0.92316 z m -11.5713,-5.6949 c 0.29184,-0.91952 1.51912,-2.44939 2.72726,-3.39974 2.61164,-2.0543 2.23066,-3.0853 -0.44704,-1.20977 -2.09448,1.46703 -4.87094,6.28133 -3.62249,6.28133 0.44641,0 1.05043,-0.75231 1.34227,-1.67182 z m -70.916348,-5.68583 c -0.809772,-0.21197 -2.334305,-0.21966 -3.387855,-0.0171 -1.053549,0.2026 -0.391008,0.37605 1.472311,0.38544 1.863322,0.009 2.725316,-0.1563 1.915544,-0.36834 z M 140.38256,202.22665 c 2.21894,-1.74539 3.00155,-3.79216 6.35557,-16.6214 0.87566,-3.34946 2.56757,-7.75443 3.75979,-9.7888 2.16064,-3.68686 8.57968,-10.21602 10.75735,-10.94191 1.83396,-0.61132 0.20197,-2.26411 -3.14926,-3.18944 -3.04844,-0.84173 -3.14361,-0.79081 -7.48258,4.00394 -4.08031,4.50885 -14.18866,12.42027 -15.14802,11.85577 -0.23181,-0.13643 -1.11913,0.34933 -1.97182,1.07945 -0.8527,0.7301 -2.0615,1.15707 -2.68625,0.94884 -0.62473,-0.20827 -0.91667,-0.0239 -0.64873,0.40958 0.43791,0.70855 -12.24046,8.74813 -13.79572,8.74813 -0.7468,0 -1.70099,4.26183 -1.70099,7.59727 0,1.26708 0.66699,2.89176 1.48218,3.61041 1.29783,1.14414 7.87729,2.59293 15.88058,3.49689 5.37414,0.60698 6.18974,0.48888 8.3479,-1.20873 z m -10.04182,-1.33806 c -1.3975,-0.1611 -4.55773,-0.70654 -7.02276,-1.21217 -3.77139,-0.77358 -4.40366,-1.16566 -3.98862,-2.47333 0.66689,-2.10121 -0.94655,-2.95524 -2.03877,-1.07916 -0.68654,1.17926 -0.85411,0.68504 -0.78367,-2.31134 0.0491,-2.09623 0.24968,-2.99265 0.4453,-1.99202 0.19567,1.00067 1.09661,2.01309 2.00209,2.24988 0.95673,0.2502 1.64633,1.15959 1.64633,2.1711 0,1.96138 2.9367,2.96931 11.19741,3.84317 3.66019,0.38719 4.78163,0.25252 4.58538,-0.55065 -0.14294,-0.58473 -0.0998,-0.77733 0.0953,-0.42796 0.81473,1.45686 2.75498,0.51242 2.75498,-1.34103 0,-1.19201 0.50413,-1.97625 1.27043,-1.97625 1.52786,0 1.5814,0.64948 0.28752,3.48917 -1.01473,2.22714 -2.76356,2.49664 -10.45108,1.61059 z m 13.4922,-16.81608 c 0.3314,-1.39748 0.96709,-2.91333 1.4126,-3.36851 0.44552,-0.45521 0.36198,0.49762 -0.18567,2.1174 -1.28222,3.79247 -2.00418,4.52865 -1.22693,1.25111 z m 11.49321,-19.48018 c 1.09409,-1.16455 2.56852,-2.11741 3.27656,-2.11741 0.7298,0 0.0444,0.91708 -1.58262,2.11741 -1.5785,1.16458 -3.05295,2.11743 -3.27655,2.11743 -0.22363,0 0.48856,-0.95285 1.58261,-2.11743 z m -70.750265,17.21454 c -0.794299,-4.0893 -1.979513,-7.87939 -2.633818,-8.42242 -1.748543,-1.45116 -2.128611,-0.53301 -1.054634,2.5478 0.521793,1.4968 0.775146,2.89502 0.563018,3.10717 -0.212151,0.21213 -0.821967,-1.04601 -1.355152,-2.79587 -0.533175,-1.74988 -1.94837,-4.32497 -3.144842,-5.72246 -1.521437,-1.77704 -1.907345,-1.98474 -1.283683,-0.69091 0.49045,1.01749 0.891747,4.38539 0.891747,7.48422 0,4.97633 0.313451,6.07069 2.684456,9.37228 3.192684,4.44573 4.197966,4.71861 3.630407,0.98542 -0.331027,-2.1773 -0.250532,-2.39856 0.38512,-1.0587 0.441999,0.93167 0.830416,2.67852 0.863158,3.88191 0.03275,1.2034 0.345382,2.47865 0.694741,2.83389 1.282073,1.30362 1.165439,-4.2839 -0.240518,-11.52233 z m 18.211575,-6.31719 c 0.0258,-4.98978 -0.10537,-5.31448 -3.322763,-8.22121 -1.842311,-1.66443 -4.927421,-3.83115 -6.85575,-4.81491 l -3.506068,-1.78867 0.581349,2.8107 c 0.319747,1.54588 1.599612,5.84805 2.844158,9.56039 1.83762,5.48142 2.800558,7.11208 5.124598,8.67826 2.695896,1.81676 2.926896,1.84283 3.984676,0.44949 0.64094,-0.84425 1.13443,-3.70876 1.1498,-6.67405 z m -6.718965,2.28628 c -1.209962,-2.26078 -1.116,-2.59657 0.726539,-2.59657 1.666105,0 2.990023,2.12254 2.160773,3.46427 -0.769116,1.24449 -1.946224,0.89075 -2.887312,-0.8677 z m -0.742571,-7.77822 c -0.743049,-1.18981 -0.836501,-2.07752 -0.277523,-2.63649 1.252229,-1.25223 2.684223,0.009 2.684223,2.36286 0,2.54322 -0.923723,2.64824 -2.4067,0.27363 z m -4.74201,4.54642 c -2.902336,-7.64213 -3.349431,-16.72518 -1.050116,-21.3343 1.1299,-2.26493 1.08459,-2.47475 -0.711017,-3.29289 -1.569868,-0.71527 -2.218877,-0.53892 -3.577193,0.97203 -2.863387,3.18518 -2.982319,3.92792 -0.917261,5.72868 l 1.970275,1.71809 -2.02571,-0.98885 -2.025711,-0.98882 0.589298,5.38757 c 0.934337,8.54172 1.98059,11.45043 4.964731,13.80239 3.695612,2.91275 4.200941,2.73044 2.782704,-1.0039 z M 103.56357,153.8136 c 0.13275,-8.2183 0.51585,-12.25338 1.20493,-12.69149 0.55565,-0.35327 0.62912,-0.64562 0.16334,-0.64969 -1.02397,-0.009 -3.99289,1.97322 -8.661043,5.78245 -2.497619,2.03811 -4.00529,4.25137 -5.35559,7.86202 -1.03365,2.76394 -1.732954,5.1673 -1.554012,5.34083 0.778166,0.75466 12.269945,6.35011 13.095275,6.3762 0.60178,0.0191 0.97874,-4.07391 1.10712,-12.02032 z m -7.446412,4.57312 c -1.225483,-2.28983 -1.170492,-2.68749 0.371596,-2.68749 1.639759,0 2.601223,2.36927 1.434793,3.53571 -0.609984,0.60995 -1.16563,0.34906 -1.806389,-0.84822 z m 0.856818,-7.69678 c -1.422012,-0.9004 -0.634175,-3.46036 1.064928,-3.46036 1.345293,0 2.501506,2.2708 1.763893,3.46429 -0.5921,0.95802 -1.311192,0.95703 -2.828821,-0.003 z m -17.012177,3.34417 c -0.507093,-0.94751 -1.318501,-1.72275 -1.803134,-1.72275 -1.364956,0 -0.658479,7.82887 0.868664,9.62619 1.263578,1.4871 1.35764,1.35188 1.599479,-2.30031 0.141381,-2.1342 -0.157914,-4.6556 -0.665009,-5.60313 z m -10.178993,6.7469 c 0,-0.46585 -0.403628,-0.84696 -0.896955,-0.84696 -0.493315,0 -0.661399,0.38111 -0.373494,0.84696 0.287904,0.46583 0.691531,0.84694 0.896954,0.84694 0.205422,0 0.373495,-0.38111 0.373495,-0.84694 z m -2.540894,-9.52835 V 146.8061 H 62.58361 c -5.697491,0 -5.992911,1.1027 -1.522038,5.6813 4.559441,4.66928 6.18034,4.34546 6.18034,-1.23474 z m 16.661238,-3.52598 c -0.78132,-2.03608 -3.528785,-1.60891 -4.788298,0.74449 -0.925799,1.72987 -0.925666,2.31998 8.54e-4,3.43636 1.00736,1.21382 1.326674,1.13976 3.210914,-0.74449 1.26783,-1.26781 1.88906,-2.62192 1.57653,-3.43636 z m -4.772521,-4.19253 c -1.143635,-1.14362 -4.300522,1.77312 -3.677194,3.39746 0.38402,1.00076 0.860249,0.87455 2.495,-0.66122 1.33278,-1.25209 1.735109,-2.18332 1.182194,-2.73624 z m 7.956132,2.78349 c -1.028376,-1.13638 -1.710949,-1.40146 -1.92844,-0.74902 -0.185149,0.55544 0.186248,1.34113 0.82532,1.74596 2.113445,1.33878 2.720452,0.7902 1.10312,-0.99694 z m 25.044249,0.6546 c 0,-0.14156 -1.42926,-1.57079 -3.17614,-3.17611 l -3.17609,-2.91877 2.91877,3.17611 c 2.71674,2.95625 3.43346,3.56552 3.43346,2.91877 z m -15.727613,-2.21859 c 0.810798,-0.89595 2.96157,-2.65973 4.779493,-3.91955 l 3.30529,-2.29058 2.91795,2.22562 c 1.60486,1.22409 3.13393,2.22562 3.39791,2.22562 0.80557,0 0.5343,-6.52259 -0.37018,-8.9016 -0.46762,-1.22988 -2.37328,-4.04243 -4.23482,-6.25014 -3.81477,-4.52409 -4.02498,-5.40586 -1.84618,-7.74453 1.52422,-1.63608 1.57809,-1.63456 5.83264,0.16283 2.68237,1.13327 4.8866,1.5738 5.87247,1.17369 1.4736,-0.59805 1.45189,-0.69938 -0.32737,-1.52737 -1.04811,-0.48774 -1.90568,-1.21949 -1.90568,-1.6261 0,-0.4066 1.12449,-0.15785 2.49885,0.55292 2.84124,1.46926 8.20644,1.68835 11.42054,0.46633 5.61748,-2.13578 7.04475,-10.62341 2.57153,-15.29243 -3.12528,-3.2621 -5.88966,-3.83562 -8.18416,-1.69798 -1.61254,1.50233 -1.69904,1.9449 -0.73281,3.75029 1.35335,2.52878 0.6002,3.90241 -2.13963,3.90241 -2.41995,0 -3.91895,-2.89869 -3.12839,-6.04959 0.47742,-1.90299 0.42521,-1.93013 -1.11425,-0.57902 -1.42814,1.25339 -1.8099,1.2747 -3.29713,0.18401 -1.16534,-0.85463 -1.60095,-2.00577 -1.41821,-3.747863 0.19922,-1.899353 -0.35029,-3.0838 -2.24659,-4.842336 -3.67177,-3.405011 -7.94329,-6.986256 -8.332863,-6.986256 -0.897487,0 2.466213,5.140231 4.123183,6.300819 1.85011,1.295864 1.82317,1.321855 -1.36933,1.321855 -2.798653,0 -3.108273,0.178621 -2.20215,1.27045 1.52909,1.842449 -0.325933,1.673788 -4.65845,-0.423569 -2.296639,-1.11178 -4.171619,-2.890145 -5.45537,-5.17426 l -1.95603,-3.480277 -1.980778,2.421656 c -1.089431,1.331881 -1.994479,2.647262 -2.011233,2.923042 -0.02887,0.47533 9.22767,4.242699 13.309225,5.416789 2.031503,0.58438 2.525916,1.78005 0.952833,2.30441 -0.524058,0.17467 -0.952833,1.34984 -0.952833,2.61147 0,2.77805 -0.375184,2.83344 -2.930704,0.43262 l -1.981167,-1.86119 -1.736874,1.73684 c -1.580836,1.58083 -1.616998,1.85675 -0.402573,3.07117 1.797351,1.79734 1.67924,2.90502 -0.430075,4.0339 -3.897971,2.08613 -6.873351,-5.04601 -3.609611,-8.6524 0.880356,-0.97278 1.027755,-1.54887 0.396277,-1.54887 -2.066446,0 -7.058712,2.57276 -8.594627,4.42923 -2.318578,2.80247 -2.974914,8.32655 -1.360292,11.44889 1.579149,3.05376 2.892477,3.70525 9.003895,4.46661 l 4.658284,0.58032 -4.681566,0.12455 c -7.08638,0.18849 -10.548514,-2.63303 -11.486283,-9.36089 -0.483156,-3.46632 -0.712415,-3.82252 -1.775799,-2.75913 -0.671569,0.67156 -0.943642,1.66985 -0.60461,2.21841 0.41633,0.67364 0.158925,0.82184 -0.792966,0.45656 -1.830947,-0.70259 -1.795008,0.0962 0.394668,8.7731 2.616597,10.36848 7.224863,16.35272 17.202821,22.33934 2.767571,1.66049 5.281157,3.0191 5.585727,3.0191 0.304591,0 1.217179,-0.73304 2.027998,-1.62897 z m -2.297005,-8.56803 c 1.079826,-0.9705 5.513995,-1.81236 4.977995,-0.94513 -0.266229,0.43079 -1.644108,0.95351 -3.061957,1.1616 -1.417816,0.20811 -2.280029,0.11069 -1.916038,-0.21647 z m 9.343238,-1.41128 c 1.04811,-0.20188 2.76323,-0.20188 3.81132,0 1.04814,0.2019 0.19056,0.36707 -1.90566,0.36707 -2.09625,0 -2.95379,-0.16523 -1.90566,-0.36707 z M 93.074317,119.27977 c 0.287893,-0.46583 0.904571,-0.84695 1.370419,-0.84695 0.465813,0 0.611403,0.38112 0.32351,0.84695 -0.287915,0.46584 -0.904593,0.84697 -1.370418,0.84697 -0.465825,0 -0.611415,-0.38113 -0.323511,-0.84697 z m -16.515796,20.99285 c 0,-1.1923 -1.579804,0.0754 -2.659576,2.1341 -0.968,1.84557 -0.96216,1.84727 0.842407,0.24503 0.999432,-0.88741 1.817169,-1.95801 1.817169,-2.37913 z m -9.316609,-5.26353 c 0,-3.53717 1.195645,-5.82314 3.43636,-6.57004 1.995334,-0.66511 -1.052803,-6.96946 -4.638752,-9.59414 -4.437937,-3.24831 -4.726355,-3.35656 -4.726355,-1.77408 0,1.07467 -0.413055,1.16301 -2.222025,0.47524 -1.791181,-0.68101 -2.438772,-0.55378 -3.339878,0.65618 -1.489688,2.00027 -5.164844,9.46818 -5.888094,11.96457 l -0.577676,1.99393 2.477382,-1.83159 c 1.964737,-1.45261 3.420232,-1.77756 7.033742,-1.57045 l 4.556356,0.26114 1.264671,4.87006 c 0.695569,2.67851 1.570579,4.87004 1.944469,4.87004 0.373889,0 0.6798,-1.68788 0.6798,-3.75086 z M 34.808051,115.68017 c -0.201875,-1.04811 -0.367048,-0.19056 -0.367048,1.90566 0,2.09624 0.165166,2.95381 0.367048,1.90569 0.201877,-1.04812 0.201877,-2.76324 0,-3.81135 z m -22.618791,2.41977 c 0,-0.18309 -0.591495,-0.55985 -1.314434,-0.83728 -0.753734,-0.28921 -1.0937022,-0.14721 -0.796979,0.33289 0.497387,0.80479 2.111413,1.19034 2.111413,0.50439 z m 57.593546,-0.0734 c 0,-0.22346 -1.619819,-1.22315 -3.599601,-2.22153 -3.84103,-1.937 -3.84411,-1.45356 -0.0065,1.00668 2.384131,1.52843 3.60604,1.94009 3.60604,1.21486 z m -38.399412,-4.8872 c -0.234958,-0.5823 -0.427198,-0.10592 -0.427198,1.05869 0,1.16458 0.19224,1.64101 0.427198,1.05871 0.234958,-0.58228 0.234958,-1.53512 0,-2.1174 z m 114.439816,0.19537 c 0.57621,-0.92267 0.78859,-1.67757 0.47196,-1.67757 -0.84507,0 -3.67346,2.68909 -3.67346,3.49256 0,1.15241 2.08736,-0.031 3.2015,-1.81499 z M 62.668306,110.302 c -0.301426,-0.7855 -0.738619,-1.23763 -0.971534,-1.00473 -0.232914,0.23293 -0.176859,1.06619 0.124567,1.8517 0.301428,0.7855 0.738617,1.23762 0.971532,1.00472 0.232915,-0.23292 0.176859,-1.06617 -0.124565,-1.85169 z M 86.84973,98.529233 c 2.632252,0 4.628729,-0.256706 4.436585,-0.570468 -0.192143,-0.313763 -2.318389,-1.224473 -4.725034,-2.023835 l -4.375687,-1.453377 -2.813548,3.070109 c -3.591437,3.918948 -3.623811,5.482198 -0.06095,2.940898 2.098479,-1.496747 3.89,-1.963327 7.538571,-1.963327 z m 86.26268,0.445229 c 0,-1.055512 -3.85925,-3.033515 -7.41094,-3.79838 -3.25248,-0.700425 -3.59061,0.389062 -0.89902,2.896663 1.9267,1.795 8.30996,2.487645 8.30996,0.901717 z M 44.411553,118.0094 c 0,-0.46583 0.745317,-1.79981 1.656262,-2.96437 0.910944,-1.16459 1.65626,-1.73628 1.65626,-1.27045 0,0.46583 -0.745316,1.79978 -1.65626,2.96437 -0.910945,1.16459 -1.656262,1.73629 -1.656262,1.27045 z"
       id="path849"
       inkscape:connector-curvature="0"
       inkscape:export-xdpi="72"
       inkscape:export-ydpi="72" />
  </g>
</svg>
